<svg width="169" height="98" viewBox="0 0 169 98" fill="none" xmlns="http://www.w3.org/2000/svg">
<path d="M95.3731 40.8158L94.1704 42.2851L94.0119 43.238L94.5464 44.0398V44.0583L93.7693 45.1085H94.5464V45.6426L94.9475 47.7801L95.6157 49.1158L97.0857 50.5855L97.4866 50.9862L98.6897 50.4518L99.8924 49.7839L100.962 50.1846L102.164 50.0511L102.966 49.1158L104.169 48.5814L104.971 48.9824L105.506 50.0511H106.441L107.644 48.8487L104.169 54.4776L106.708 54.2103L111.119 53.5423L113.925 53.8096L116.197 53.2754L121.009 52.741L126.087 52.474L127.424 52.8745L131.7 53.4088L132.769 54.4776L134.64 56.214V57.5501V59.0195L134.507 60.8896L132.636 62.0919L129.696 64.2293L125.285 65.9661L122.211 68.2368L117.801 69.7063L116.197 69.8399L115.663 69.4392L116.197 68.6376L117.534 67.7026L118.603 65.8324L118.737 63.962L117.801 62.6263L117.099 61.2905L116.832 59.9547L115.362 59.0195L115.495 57.1492L113.625 56.8821L112.421 56.615L109.882 56.7486L107.477 57.0159L105.338 58.0843L104.403 59.4203L103.734 61.1567L102.966 61.6912L102.565 63.4278L102.031 65.6988L101.095 66.3668L99.8924 67.0348L99.7588 68.3706L99.625 69.8399L98.0215 71.1758L97.2193 75.0499L96.6848 76.5192L95.081 77.1869L94.0119 77.9885L93.4773 80.5266L92.2744 82.7979L91.4726 85.7365L90.0024 87.4731L87.9977 90.4119L87.8643 92.2825L88.7995 94.2862L90.2697 95.7553L91.8735 96.1562L93.4773 96.2897L94.6801 97.3584L96.1503 97.6259L96.6848 97.3584H98.6895L99.0904 96.0228L100.962 95.6219L102.432 94.4196L103.234 92.5496L104.436 89.0762L105.506 87.874L106.976 84.5343L108.178 81.8624L109.426 80.3959L110.228 80.2624L113.302 80.7968L117.712 81.7317L122.657 83.0676H124.395L125.33 84.0025L127.736 84.2698L129.741 85.0713L132.948 86.6744L139.764 89.0788L142.971 90.4147L145.377 91.6174L147.382 92.4187L150.589 92.6857L151.792 92.0178L152.862 92.1518L153.797 92.9531L155.534 93.4869L156.47 92.8191H157.673L158.475 94.0213L159.811 94.4222L161.682 94.9566L163.42 95.0901L165.023 95.7584L165.825 96.8272L167.028 97.495L167.563 97.3612L167.963 96.6934L168.097 95.224L168.765 94.6897L168.899 93.6209L168.498 93.3535L167.429 92.1518L163.821 90.4147L161.014 89.4797L159.41 88.411L157.385 86.6744L155.534 86.2738L152.444 85.0713L151.449 84.5692L147.631 82.7631L144.021 81.6029L140.947 80.4426L139.209 79.9741L138.408 79.5735L134.799 77.3025L130.79 75.4323L127.047 74.0963L124.775 72.7605L122.904 71.0239L125.444 70.4897L128.384 69.0202L131.19 68.6194L133.73 67.9516L135.334 66.8827L137.739 64.6119L139.076 64.2112L140.145 63.4099L141.348 62.0738L141.481 60.8714L142.417 59.2683L143.62 57.131L144.422 55.9288L144.689 56.3295V57.2647L144.422 59.8029L143.62 61.0051L143.486 61.6731H144.021L145.491 60.0701L145.758 59.0014L146.293 57.131L146.026 55.1273V53.3907L146.159 50.9862L143.486 48.1808L139.877 45.9098L137.605 45.3754L131.458 44.1732L125.711 43.7723L124.909 43.9062L124.241 43.5053L122.904 44.0397L119.964 44.5741L116.623 44.1732L114.351 44.0397L111.678 44.5741L108.47 44.7076L107.401 45.1085L104.595 45.5089L102.323 45.1085H101.254H100.719L104.461 37.3421L96.7095 45.1085H94.705H94.5464V44.0583L98.7254 38.4109H99.2488L99.5162 37.3421L98.7254 38.4109H97.7786L97.3779 39.4797L95.3731 40.8158Z" fill="currentColor"/>
<path d="M38.1331 1.5574L39.3509 1.52442C40.0423 1.45844 40.7007 1.19455 41.4224 1.0956L47.5458 0.305267L52.5161 1.9519C53.3064 2.3794 54.0967 2.8082 54.6562 3.53256C55.1193 4.60557 55.4404 5.73441 55.6114 6.89049C55.6114 8.07533 55.5455 9.25885 55.3805 10.412C55.2169 11.6298 55.151 12.9136 54.5256 13.9335L51.6611 18.7732C51.4975 18.9381 51.3985 19.1347 51.2336 19.2996C51.037 19.4975 51.037 19.8591 50.7071 19.8591L49.8192 19.892C49.7532 19.8261 49.7202 19.7271 49.6543 19.6611C49.4563 19.3643 49.2254 18.9368 49.5553 18.6742L50.5106 18.0145L53.507 12.6484C53.342 12.188 52.7166 12.188 52.4198 12.5825C52.5187 13.01 52.4198 13.4388 52.1902 13.8003C51.9593 14.1631 51.5318 14.2608 51.2679 14.5906L48.7333 18.1794C48.5697 18.5739 48.4707 18.9684 48.3388 19.3643C47.844 20.5504 46.7924 21.4384 46.1657 22.5256C45.9691 22.8884 45.7712 23.3159 45.6393 23.7434C45.8634 23.6278 46.0643 23.4717 46.2317 23.2829C46.6592 22.7882 46.8571 22.1628 47.3505 21.7023H48.1409L48.3058 22.1298L43.1706 27.4299C43.2036 27.7597 43.2683 28.1529 43.5651 28.2849C43.8937 28.4498 44.2565 28.2849 44.5521 28.0553C44.9466 27.7254 45.3424 27.4629 45.7369 27.166C46.9547 26.1778 47.976 24.9269 49.3917 24.2026L55.6128 20.9436L56.502 19.9567C58.3638 18.6051 60.3099 17.3738 62.3286 16.2702C65.7855 14.361 69.406 12.7804 73.2257 11.9254L76.0572 11.8264L76.453 11.4979C77.4742 11.7288 78.4295 12.1233 79.2844 12.7487C79.8439 13.1432 80.2054 13.8016 80.4693 14.46C80.9894 15.8263 81.3321 17.2537 81.4892 18.7072L81.8177 19.1347C81.9167 20.5175 81.8177 21.9662 81.1923 23.217C81.1923 25.7859 80.5999 28.3878 79.3161 30.6242C79.3161 30.8564 79.2501 31.119 79.4481 31.2839C79.679 31.4805 79.9745 31.1836 80.2054 31.0187C80.435 30.8564 80.5669 30.5912 80.7318 30.3616C81.6541 28.8153 82.4101 27.1357 83.5633 25.7859C84.4843 25.0299 85.4382 24.3385 86.5914 24.0746L92.2214 22.7948L96.7971 23.3212C98.5097 24.0786 100.023 25.2964 101.472 26.4812C102.328 27.2056 103.052 28.0289 103.744 28.8839C104.299 29.5053 104.626 30.2551 104.953 31.0034L104.962 31.0227C105.461 32.155 105.879 33.3217 106.212 34.5138C106.674 37.4113 106.28 40.2744 106.016 43.1705C105.983 43.8632 106.049 44.6523 106.74 44.9148C107.069 45.0468 107.43 44.8845 107.76 44.9821C108.714 44.8172 109.603 44.5203 110.493 44.1601C112.763 43.2708 113.65 45.5745 115.657 44.1601C116.199 47.4319 116.809 49.1634 115.657 50.9749L110.685 53.7061L109.467 54.069L104.661 54.2985C102.707 54.5982 100.709 54.4295 98.833 53.8064C98.0756 53.5412 97.2193 53.2786 96.7259 52.6519L93.236 48.34C92.5776 47.2528 92.0182 46.101 91.7213 44.8845C91.0299 42.0187 91.1935 39.0236 91.5894 36.1249C91.4904 35.0403 91.4904 33.8884 90.898 32.9319C90.7331 32.635 90.6024 32.2748 90.2726 32.2075L88.0995 31.6151C86.9147 34.5455 86.2233 37.6395 85.0384 40.57C83.9512 42.4462 82.207 43.796 80.9232 45.5072L75.4581 44.8172L75.0966 45.0468C74.8131 44.8099 74.4723 44.6515 74.1084 44.5876C73.2534 44.4873 72.4631 45.279 71.6727 44.9821C69.336 44.1905 66.998 42.8737 65.9781 40.6373C65.3527 39.3205 65.1878 37.9364 65.0228 36.522C64.9301 34.4375 65.1521 32.351 65.6812 30.3326C66.1747 28.4564 67.1629 26.7768 67.9863 24.9995C68.5457 23.8134 68.9732 22.5309 69.6975 21.4437C69.7635 20.8842 70.1264 20.3578 69.9944 19.7654C69.9628 19.5675 70.0604 19.2389 69.7978 19.2719H69.0075C67.0983 21.1481 65.0242 22.8278 62.7191 24.1762L62.2257 24.7356C60.3495 25.7239 58.5392 26.8757 56.9586 28.2572C56.4981 28.7176 56.1682 29.3101 55.5758 29.6069L52.1849 31.4515L48.4312 35.072L47.8057 36.3215L43.263 41.7205L33.717 50.7401C32.9596 51.3021 32.3342 51.9922 31.5109 52.454C29.9889 52.7495 28.4495 52.9473 26.9022 53.0464C26.3098 53.0464 25.7174 52.9791 25.1249 53.0794C23.5113 53.4066 21.9319 53.966 20.2853 53.966C20.1217 53.8684 19.9238 53.7708 19.7918 53.6388C19.495 53.4066 19.1994 53.0794 19.1005 52.6822C19.0358 52.3524 19.2324 52.0252 19.2324 51.6953C19.2667 51.2335 19.1678 50.806 19.0358 50.3785L22.2948 45.4413L23.0521 44.6839C25.9135 40.7093 28.4771 36.5285 30.7219 32.1758L40.9276 17.8219C41.586 16.67 42.3104 15.4839 42.8368 14.266C43.4928 12.744 43.9786 11.1541 44.2855 9.52537C43.924 8.67038 43.1667 8.07665 42.3434 7.68214C41.7523 7.61617 41.1915 7.97769 40.5991 8.07664C40.4012 8.10963 40.2046 8.01067 40.0397 8.07664L29.8023 13.1129C28.2559 14.2331 26.3124 15.286 25.9509 17.1622C25.8533 17.6556 26.0828 18.314 25.5894 18.5779L18.9395 22.2973C18.7086 22.5282 18.479 22.7578 18.2151 22.9557C17.8536 23.5152 17.5568 24.1076 17.4578 24.733C17.2942 25.5563 17.0963 26.3796 16.6028 27.071C16.3059 27.4325 16.141 27.9577 15.6476 28.0922L10.2815 29.2111C8.93171 29.7375 7.41702 29.6386 6.03426 29.1108L2.24885 26.4786C2.01795 26.2477 1.75539 26.0181 1.59046 25.7212C1.36088 25.3267 1.19595 24.8979 1.06401 24.4374C0.800128 23.2856 0.800129 22.0348 1.12998 20.9146C1.42685 20.2232 1.98497 19.7627 2.44676 19.2033C3.46799 18.0844 4.06041 16.6687 5.1463 15.6145L6.33113 15.0551C6.82591 15.3519 6.92355 15.9773 7.25341 16.4378C7.45 16.8006 7.94478 16.8996 8.33929 16.7677C8.73511 16.6027 8.99768 16.3072 9.32753 16.0763C9.75634 15.7148 10.3817 15.3189 10.3158 14.7265C10.2828 14.3637 10.1838 14.0022 10.4147 13.7383C10.6443 13.4414 10.9399 13.1775 11.2697 12.9479L14.0022 11.0058L18.0845 9.65599L18.8089 8.99761L33.7882 2.54432L34.8741 2.51266L38.1331 1.5574Z" fill="currentColor"/>
</svg>
