<svg width="232" height="179" viewBox="0 0 232 179" fill="none" xmlns="http://www.w3.org/2000/svg">
<path d="M78.1184 17.8417L79.3869 18.3308C80.1273 18.5598 80.9188 18.5707 81.7046 18.7788L88.351 20.5946L92.7629 24.4252C93.3933 25.205 94.0232 25.986 94.2883 26.9724C94.3044 28.2764 94.1504 29.577 93.83 30.8412C93.3212 32.0615 92.7449 33.2521 92.0798 34.369C91.3882 35.5531 90.7689 36.847 89.6868 37.6289L84.658 41.3833C84.4186 41.4829 84.2323 41.6429 83.9916 41.7419C83.7041 41.8613 83.5488 42.2337 83.2091 42.092L82.2803 41.7446C82.2407 41.6483 82.2493 41.5322 82.2096 41.436C82.1333 41.0452 82.0791 40.5057 82.5316 40.377L83.7988 40.1078L89.1896 35.8678C89.2175 35.3227 88.5733 35.0541 88.0981 35.3329C88.0165 35.8157 87.7304 36.2149 87.3387 36.4886C86.945 36.7632 86.4628 36.6801 86.0493 36.9065L81.8975 39.5143C81.5595 39.8504 81.2882 40.2142 80.9823 40.5652C79.9632 41.5744 78.4988 42.0374 77.3864 42.888C77.028 43.1773 76.6406 43.5326 76.3211 43.9162C76.6017 43.8934 76.8756 43.8188 77.129 43.6964C77.7818 43.3704 78.2543 42.8112 78.9603 42.5489L79.7743 42.8883L79.7606 43.3994L72.1953 46.6529C72.0876 47.0068 71.9853 47.4395 72.2344 47.7029C72.5019 48.0139 72.9465 47.9999 73.3495 47.8903C73.8975 47.72 74.4179 47.6196 74.9518 47.4833C76.6305 46.9884 78.2195 46.1387 79.9888 46.0007L87.7959 45.3159L89.1357 44.6813C91.6336 44.0888 94.1669 43.6564 96.72 43.3868C101.1 42.9051 105.508 42.8319 109.81 43.5918L112.768 44.706L113.317 44.5376C114.27 45.214 115.084 46.0306 115.696 47.0419C116.103 47.6885 116.193 48.5219 116.182 49.3134C116.131 50.944 115.871 52.5613 115.408 54.1258L115.563 54.7072C115.071 56.1739 114.347 57.6235 113.165 58.6432C112.062 61.2891 110.335 63.7145 108.052 65.4666C107.952 65.7058 107.771 65.9479 107.904 66.2027C108.058 66.5044 108.49 66.3255 108.798 66.2548C109.104 66.1863 109.354 65.9698 109.623 65.8042C111.237 64.6076 112.737 63.2023 114.504 62.3074C115.777 61.9242 117.057 61.6219 118.358 61.8453L124.706 62.9451L129.193 65.4525C130.632 66.9681 131.667 68.8723 132.651 70.7149C133.221 71.8287 133.614 72.9878 133.959 74.1653C134.263 75.0435 134.279 75.9565 134.294 76.8677L134.295 76.8912C134.323 78.2721 134.252 79.6533 134.083 81.0241C133.315 84.2067 131.679 86.9862 130.163 89.8558C129.832 90.5551 129.561 91.3961 130.16 91.9634C130.442 92.2404 130.884 92.2285 131.182 92.4708C132.235 92.7106 133.278 92.7867 134.349 92.7977C137.07 92.857 138.043 94.8517 140.717 94.2567C139.871 97.8595 138.706 100.663 136.741 102.035L130.448 102.712L127.487 103.462L123.988 100.735C121.847 100.205 119.862 99.173 118.197 97.7254C117.531 97.127 116.762 96.4888 116.523 95.6313L114.78 89.6915C114.569 88.2889 114.488 86.8623 114.704 85.4819C115.223 82.2333 116.678 79.2187 118.33 76.4031C118.694 75.2436 119.189 74.0572 118.99 72.8175C118.947 72.4409 118.967 72.0138 118.657 71.8029L116.673 70.2594C114.194 72.7688 112.153 75.6586 109.674 78.1679C107.749 79.6334 105.372 80.2745 103.315 81.4857L97.9827 78.4279L97.5117 78.5091C97.3214 78.1433 97.0384 77.8339 96.6911 77.6117C95.8535 77.1413 94.6995 77.6172 94.013 76.972C91.9463 75.1531 90.1038 72.7927 90.0138 70.0513C89.9352 68.4264 90.3597 66.9301 90.7973 65.4025C91.5971 63.2157 92.7218 61.1619 94.1337 59.3104C95.4477 57.5899 97.1869 56.2844 98.7982 54.8075C99.8838 53.826 100.875 52.6887 102.088 51.88C102.396 51.3322 102.996 50.9458 103.114 50.279C103.167 50.0615 103.408 49.7651 103.124 49.6863L102.31 49.3469C99.5377 50.4593 96.6801 51.2985 93.7269 51.6974L92.9783 52.0616C90.6215 52.2737 88.2623 52.6826 86.041 53.4266C85.369 53.7031 84.7748 54.1716 84.0371 54.2229L79.7524 54.6664L74.3313 56.7832L73.1505 57.8015L66.1529 61.4113L52.4472 66.6013C51.4258 66.855 50.4853 67.2971 49.4389 67.4191C47.7444 67.0698 46.0739 66.6125 44.4377 66.05C43.8275 65.7955 43.2463 65.4718 42.593 65.3207C40.7905 64.9646 38.9236 64.8625 37.2276 64.1553C37.101 63.9845 36.9391 63.799 36.8599 63.6064C36.6538 63.2397 36.49 62.7758 36.5586 62.3242C36.6337 61.9567 36.9767 61.7041 37.1184 61.3644C37.352 60.9035 37.4337 60.4207 37.4814 59.9237L42.9585 56.2382L44.0638 55.7834C48.7179 52.9186 53.1538 49.7136 57.3353 46.1946L74.0115 35.7937C75.1843 34.8901 76.4398 33.9795 77.505 32.9513C78.8344 31.6653 80.0176 30.2365 81.0332 28.6908C81.028 27.6549 80.503 26.7181 79.8244 25.9582C79.2439 25.6364 78.5111 25.7679 77.8585 25.6154C77.6405 25.5644 77.4805 25.378 77.2823 25.3751L64.5752 26.1655C62.5014 26.6551 60.0475 26.9049 58.8694 28.682C58.5569 29.1484 58.5106 29.9251 57.889 29.9849L49.4425 30.9598L49.4424 30.9599C49.1054 31.0985 48.7704 31.2364 48.4136 31.3269C47.801 31.7478 47.2408 32.2305 46.8703 32.8321C46.3482 33.6098 45.7908 34.3728 44.9856 34.873C44.5246 35.1178 44.1292 35.5879 43.5631 35.5145L37.5557 34.3623C35.9394 34.3248 34.4219 33.5724 33.2243 32.4349L30.456 28.0981C30.3173 27.7611 30.1455 27.4119 30.1031 27.0353C30.0361 26.5304 30.0504 26.0179 30.1123 25.4869C30.3352 24.1872 30.8724 22.899 31.6932 21.8869C32.2959 21.3023 33.0685 21.0677 33.7844 20.6898C35.3168 19.976 36.535 18.7723 38.1061 18.1529L39.5667 18.0856C39.9488 18.6038 39.7808 19.2899 39.9228 19.9058C39.9694 20.364 40.4365 20.6784 40.8995 20.7119C41.378 20.7121 41.7754 20.5204 42.2143 20.4243C42.8112 20.2361 43.6254 20.097 43.8119 19.4585C43.9337 19.0706 43.9871 18.6558 44.3382 18.4831C44.7022 18.276 45.1199 18.1311 45.5582 18.0363L49.2068 17.2095L53.991 17.5725L55.0199 17.2055L73.2196 16.9922L74.3516 17.426L78.1184 17.8417Z" fill="currentColor"/>
<path d="M129.713 92.1811L127.843 93.1778L127.271 94.0912L127.477 95.1466L126.788 96.7975L126.283 99.1712L126.398 100.834L127.281 102.979L127.522 103.564L128.99 103.53L130.516 103.359L131.445 104.231L132.741 104.61L133.969 103.991L135.437 103.957L136.091 104.714L136.182 106.045L137.146 106.447L138.901 105.725L142.515 104.809L145.83 105.384L150.659 106.59L153.435 108.07L156.005 108.496L161.19 110.012L166.535 111.918L167.74 112.905L171.915 115.292L172.557 116.852L173.739 119.444L173.165 120.82L172.534 122.333L171.593 124.202L169.15 124.637L165.203 125.575L159.915 125.47L155.773 126.489L150.6 126.108L148.891 125.557L148.512 124.915L149.407 124.318L151.185 123.929L153.09 122.462L154.031 120.593L153.641 118.816L154.077 117.383L155.304 116.764L155.603 115.273L154.49 113.679L155.431 111.81L153.619 110.731L152.494 109.939L149.822 108.986L147.229 108.228L144.568 108.411L143.031 109.385L141.596 110.886L138.763 111.482L137.604 113.098L136.078 115.207L134.828 115.494L133.302 115.665L132.591 116.984L131.822 118.439L129.597 119.127L127.107 122.772L125.925 124.056L123.986 124.055L122.541 124.421L120.9 126.806L118.686 128.629L116.598 131.311L114.338 132.468L111.011 134.634L110.07 136.503L110.173 138.969L111.056 141.113L112.536 142.215L114.131 143.041L114.91 144.659L116.31 145.566L116.975 145.52L119.04 146.381L120.026 145.177L122.126 145.568L124.156 144.961L125.785 143.379L128.516 140.318L130.133 139.539L133.082 136.731L135.468 134.496L137.383 133.521L138.266 133.728L141.203 135.599L145.344 138.456L149.863 141.955L151.653 142.701L152.215 144.066L154.578 145.374L156.298 147.061L158.913 150.09L164.901 155.494L167.631 158.247L169.592 160.519L171.313 162.205L174.501 163.858L176.027 163.686L177.071 164.284L177.691 165.511L179.251 166.807L180.501 166.521L181.74 167.037L182.05 168.62L183.254 169.607L184.951 170.961L186.684 171.844L188.048 173.222L188.415 174.667L189.367 175.871L189.975 175.963L190.675 175.447L191.444 173.991L192.361 173.728L192.958 172.685L192.66 172.237L192.075 170.54L189.104 167.201L186.615 165.033L185.423 163.243L184.083 160.585L182.348 159.377L179.682 156.811L178.873 155.867L175.716 152.367L172.496 149.622L169.828 147.106L168.24 145.878L167.586 145.121L164.845 141.232L161.518 137.584L158.238 134.601L156.471 132.249L155.29 129.657L158.135 130.197L161.795 129.946L164.857 130.739L167.76 131.142L169.87 130.73L173.324 129.424L174.872 129.585L176.317 129.219L178.13 128.36L178.784 127.179L180.436 125.929L182.593 124.244L183.935 123.351L184.038 123.878L183.637 124.841L182.271 127.341L180.929 128.235L180.504 128.865L181.055 129.095L183.258 128.075L183.992 127.089L185.346 125.392L185.931 123.214L186.677 121.425L187.847 119.006L186.299 114.969L183.558 111.08L181.447 109.554L175.632 105.675L169.885 102.794L169.002 102.588L168.485 101.888L166.879 101.864L163.622 101.152L160.352 99.3039L158.07 98.1906L155.087 97.5931L151.726 96.3529L150.453 96.3067L147.39 95.5138L145.222 94.1256L144.121 93.6664L143.57 93.4368L140.565 92.5064L139.441 91.7148L137.376 90.8539L136.412 90.4521L135.472 90.3827L134.737 91.3686L133.223 90.7372L132.351 91.6659L129.713 92.1811Z" fill="currentColor"/>
</svg>
