<svg width="1000" height="432" viewBox="0 0 1000 432" fill="none" xmlns="http://www.w3.org/2000/svg">
<path d="M196.647 6.60849L203.074 6.43439C206.723 6.08621 210.198 4.69346 214.007 4.17119L246.325 0L272.557 8.69058C276.728 10.9468 280.9 13.2099 283.852 17.033C286.296 22.6961 287.991 28.6538 288.894 34.7554C288.894 41.0087 288.546 47.255 287.675 53.3412C286.812 59.7686 286.464 66.5442 283.163 71.927L268.045 97.4695C267.181 98.34 266.659 99.3776 265.789 100.248C264.751 101.293 264.751 103.201 263.01 103.201L258.324 103.375C257.975 103.026 257.801 102.504 257.453 102.156C256.409 100.589 255.19 98.333 256.931 96.9473L261.973 93.4655L277.787 65.1445C276.916 62.7142 273.616 62.7142 272.049 64.7963C272.571 67.0525 272.049 69.3157 270.837 71.2237C269.619 73.1387 267.362 73.654 265.97 75.3949L252.593 94.3359C251.729 96.418 251.207 98.5001 250.51 100.589C247.899 106.849 242.349 111.536 239.041 117.274C238.004 119.189 236.959 121.445 236.263 123.701C237.446 123.091 238.506 122.267 239.39 121.271C241.646 118.66 242.69 115.359 245.295 112.929H249.466L250.336 115.185L223.234 143.158C223.408 144.899 223.749 146.974 225.316 147.67C227.05 148.541 228.965 147.67 230.525 146.458C232.607 144.718 234.696 143.332 236.778 141.765C243.206 136.549 248.595 129.948 256.067 126.125L288.901 108.925L293.594 103.716C303.42 96.5825 313.691 90.0837 324.345 84.2596C342.59 74.1832 361.698 65.8408 381.858 61.3284L396.802 60.8062L398.891 59.0722C404.281 60.2909 409.322 62.373 413.835 65.6737C416.787 67.7558 418.695 71.2307 420.088 74.7055C422.833 81.9167 424.642 89.45 425.471 97.1213L427.205 99.3776C427.727 106.675 427.205 114.321 423.904 120.923C423.904 134.481 420.777 148.213 414.002 160.017C414.002 161.242 413.654 162.628 414.698 163.498C415.917 164.536 417.477 162.969 418.695 162.099C419.907 161.242 420.603 159.842 421.474 158.631C426.341 150.469 430.331 141.605 436.418 134.481C441.278 130.491 446.313 126.842 452.399 125.449L482.113 118.695L506.263 121.473C515.301 125.47 523.289 131.898 530.935 138.151C535.454 141.974 539.277 146.319 542.926 150.832C545.853 154.111 547.583 158.069 549.309 162.018L549.353 162.12C551.991 168.096 554.197 174.254 555.955 180.545C558.392 195.837 556.31 210.948 554.917 226.233C554.743 229.889 555.091 234.054 558.74 235.439C560.474 236.136 562.382 235.279 564.123 235.794C569.158 234.924 573.851 233.357 578.545 231.456C590.529 226.763 601.309 219.458 611.9 211.993C614.762 229.261 611.88 257.862 605.8 267.423L579.561 281.838L573.134 283.753L547.766 284.964C537.452 286.546 526.91 285.656 517.007 282.367C513.01 280.967 508.491 279.582 505.887 276.274L487.468 253.517C483.993 247.779 481.04 241.7 479.474 235.279C475.825 220.154 476.688 204.347 478.777 189.048C478.255 183.324 478.255 177.245 475.128 172.196C474.258 170.629 473.568 168.728 471.828 168.373L460.359 165.246C454.105 180.712 450.456 197.042 444.203 212.508C438.465 222.41 429.259 229.534 422.484 238.566L393.64 234.924L391.732 236.136C390.236 234.885 388.437 234.05 386.517 233.712C382.004 233.183 377.833 237.361 373.662 235.794C361.329 231.616 348.99 224.667 343.607 212.863C340.306 205.914 339.436 198.609 338.565 191.144C338.076 180.142 339.247 169.13 342.04 158.478C344.644 148.575 349.86 139.711 354.205 130.331C357.158 124.07 359.414 117.302 363.237 111.564C363.585 108.611 365.5 105.833 364.804 102.706C364.637 101.662 365.152 99.9277 363.766 100.102H359.595C349.519 110.004 338.572 118.869 326.407 125.985L323.802 128.938C313.9 134.154 304.346 140.233 296.004 147.524C293.573 149.954 291.832 153.081 288.706 154.648L270.809 164.383L250.998 183.491L247.697 190.085L223.721 218.58L173.34 266.184C169.343 269.15 166.042 272.792 161.697 275.229C153.664 276.789 145.539 277.833 137.373 278.356C134.246 278.356 131.12 278.001 127.993 278.53C119.476 280.257 111.141 283.21 102.45 283.21C101.587 282.694 100.542 282.179 99.846 281.483C98.2792 280.257 96.7193 278.53 96.1971 276.434C95.8559 274.693 96.8934 272.966 96.8934 271.225C97.0745 268.788 96.5522 266.532 95.8559 264.276L113.056 238.218L117.053 234.221C132.155 213.243 145.685 191.178 157.532 168.206L211.396 92.4488C214.871 86.3695 218.694 80.1093 221.472 73.6819C224.934 65.6487 227.499 57.2578 229.118 48.6616C227.21 44.1492 223.213 41.0156 218.868 38.9335C215.748 38.5853 212.789 40.4933 209.662 41.0156C208.617 41.1897 207.58 40.6674 206.709 41.0156L152.679 67.5957C144.518 73.5078 134.26 79.0647 132.352 88.967C131.837 91.5714 133.048 95.0462 130.444 96.4389L95.3475 116.069L95.3474 116.069C94.1288 117.288 92.9172 118.5 91.5245 119.544C89.6165 122.497 88.0497 125.623 87.5274 128.924C86.6639 133.269 85.6194 137.615 83.015 141.264C81.4482 143.172 80.5777 145.943 77.9733 146.653L49.6524 152.559C42.5286 155.337 34.5344 154.815 27.2365 152.029L7.25796 138.137C6.03933 136.918 4.65358 135.707 3.78313 134.14C2.57146 132.058 1.70101 129.795 1.00465 127.364C-0.388069 121.285 -0.388067 114.684 1.35283 108.771C2.91964 105.123 5.86524 102.692 8.30251 99.7396C13.6923 93.8345 16.819 86.3626 22.55 80.7987L28.8033 77.8461C31.4147 79.4129 31.93 82.7137 33.6709 85.144C34.7085 87.059 37.3198 87.5812 39.4019 86.8849C41.491 86.0144 42.8768 84.4546 44.6177 83.2359C46.8808 81.3279 50.1816 79.2388 49.8334 76.1121C49.6593 74.1972 49.1371 72.2891 50.3557 70.8964C51.5673 69.3296 53.1272 67.9369 54.8681 66.7252L69.2897 56.4748L90.8351 49.351L94.6581 45.8762L173.716 11.8172L179.447 11.6501L196.647 6.60849Z" fill="currentColor"/>
<path d="M577.383 28.2035L571.035 35.9577L570.199 40.9872L573.02 45.2188V53.6782L575.137 64.9594L578.663 72.0089L586.422 79.7654L588.538 81.8806L594.887 79.0602L601.235 75.5347L606.877 77.6496L613.226 76.9451L617.458 72.0089L623.807 69.1885L628.038 71.3046L630.86 76.9451H635.798L642.145 70.5992L656.252 60.0242L671.771 56.4986L695.047 52.973L709.86 54.3837L721.851 51.564L747.244 48.7437L774.048 47.3347L781.101 49.4482L803.672 52.2685L809.315 57.9092L819.19 67.0736V74.1249V81.8806L818.485 91.7501L808.611 98.096L793.092 109.376L769.816 118.543L753.592 130.527L730.316 138.283L721.851 138.988L719.03 136.873L721.851 132.642L728.904 127.708L734.548 117.837L735.253 107.966L730.316 100.916L729.61 93.8662L733.841 88.9307L732.432 81.8806L724.672 76.9451L725.378 67.0736L715.504 65.6639L709.154 64.2542L695.753 64.9594L683.056 66.37L671.771 72.0089L666.834 79.0602L663.305 88.2246L652.021 95.9811L649.905 105.146L647.083 117.132L642.145 120.658L635.798 124.183L635.092 131.234L634.386 138.988L625.923 146.039L621.69 166.485L618.869 174.24L610.404 177.764L604.761 181.995L601.94 195.39L595.591 207.377L591.36 222.887L583.6 232.052L573.02 247.562L572.316 257.435L577.252 268.01L585.011 275.764L593.476 277.88L601.94 278.584L608.288 284.225L616.047 285.636L618.869 284.225H629.449L631.565 277.175L641.44 275.059L649.198 268.714L653.431 258.845L659.779 240.513L665.422 234.168L673.182 216.542L679.529 202.44L686.114 194.7L690.347 193.996L706.571 196.816L729.847 201.75L755.946 208.801H765.115L770.053 213.735L782.748 215.146L793.329 219.376L810.258 227.837L846.232 240.527L863.158 247.577L875.856 253.925L886.437 258.154L903.364 259.563L909.714 256.038L915.357 256.745L920.295 260.974L929.463 263.792L934.402 260.267H940.749L944.983 266.612L952.035 268.728L961.91 271.548L971.08 272.253L979.544 275.78L983.775 281.421L990.125 284.946L992.946 284.239L995.061 280.715L995.768 272.96L999.293 270.14L1000 264.499L997.884 263.087L992.241 256.745L973.196 247.577L958.383 242.643L949.92 237.002L939.233 227.837L929.463 225.723L913.151 219.376L907.902 216.726L887.75 207.194L868.696 201.07L852.472 194.947L843.304 192.474L839.072 190.36L820.027 178.374L798.866 168.504L779.115 161.452L767.124 154.402L757.25 145.237L770.652 142.417L786.169 134.662L800.981 132.547L814.384 129.022L822.848 123.38L835.545 111.396L842.597 109.281L848.24 105.052L854.59 98.0004L855.295 91.6545L860.231 83.1937L866.581 71.9132L870.812 65.5683L872.224 67.6832V72.6187L870.812 86.0147L866.581 92.3599L865.874 95.8855H868.696L876.455 87.4254L877.867 81.7847L880.687 71.9132L879.278 61.3382V52.1729L879.982 39.4825L865.874 24.6763L846.829 12.6904L834.838 9.87003L802.394 3.52484L772.062 1.409L767.83 2.11584L764.303 -3.05176e-05L757.25 2.82031L741.732 5.64069L724.098 3.52484L712.106 2.82031L697.999 5.64069L681.07 6.34518L675.428 8.46103L660.615 10.5746L648.624 8.46103H642.982H640.16L625.347 9.87003L618.999 8.46103H608.419H603.481L599.249 9.87003L597.838 15.5107H590.079L587.964 21.1514L577.383 28.2035Z" fill="currentColor"/>
<path d="M3.98393 430V350.2H9.56993L41.6039 397.396L73.6379 350.2H79.2239V430H73.2959V360.688L41.7179 406.63H41.2619L9.68393 360.688V430H3.98393ZM103.753 430V350.2H109.681V430H103.753ZM127.398 430L164.562 349.63H170.262L207.426 430H200.928L190.782 407.656H143.7L133.554 430H127.398ZM146.208 402.298H188.274L167.298 356.128L146.208 402.298ZM246.418 430V355.672H218.602V350.2H280.162V355.672H252.346V430H246.418ZM291.384 430L328.548 349.63H334.248L371.412 430H364.914L354.768 407.656H307.686L297.54 430H291.384ZM310.194 402.298H352.26L331.284 356.128L310.194 402.298ZM422.466 430V350.2H455.982C465.786 350.2 473.652 353.278 478.44 358.066C482.202 361.828 484.482 367.186 484.482 372.886V373.114C484.482 386.452 474.564 394.09 461.112 395.914L487.446 430H479.922L454.5 396.94H454.272H428.394V430H422.466ZM428.394 391.582H455.298C468.636 391.582 478.554 384.856 478.554 373.342V373.114C478.554 362.398 470.118 355.672 455.64 355.672H428.394V391.582ZM504.849 430V350.2H561.621V355.672H510.777V387.022H556.491V392.494H510.777V424.528H562.191V430H504.849ZM617.814 431.368C592.62 431.368 577.686 412.786 577.686 390.328V390.1C577.686 368.554 593.304 348.832 617.13 348.832C630.126 348.832 638.334 352.708 646.314 359.32L642.438 363.766C636.168 358.294 628.872 354.19 616.788 354.19C597.408 354.19 583.842 370.606 583.842 389.872V390.1C583.842 410.734 596.724 426.124 618.042 426.124C628.188 426.124 637.65 421.906 643.464 417.004V394.09H616.788V388.618H649.164V419.398C641.982 425.782 630.81 431.368 617.814 431.368ZM671.415 430V350.2H677.343V430H671.415ZM728.918 431.14C716.15 431.14 706.346 426.922 696.77 418.372L700.646 413.926C709.424 422.02 717.518 425.782 729.26 425.782C741.23 425.782 749.438 419.056 749.438 409.936V409.708C749.438 401.272 744.992 396.37 726.866 392.722C707.714 388.846 699.962 382.348 699.962 370.264V370.036C699.962 358.18 710.792 349.06 725.612 349.06C737.24 349.06 744.878 352.252 752.972 358.75L749.21 363.424C741.686 356.926 734.162 354.418 725.384 354.418C713.642 354.418 705.89 361.144 705.89 369.466V369.694C705.89 378.13 710.222 383.26 729.146 387.136C747.614 390.898 755.366 397.51 755.366 409.138V409.366C755.366 422.248 744.308 431.14 728.918 431.14ZM796.936 430V355.672H769.12V350.2H830.68V355.672H802.864V430H796.936ZM848.742 430V350.2H882.258C892.062 350.2 899.928 353.278 904.716 358.066C908.478 361.828 910.758 367.186 910.758 372.886V373.114C910.758 386.452 900.84 394.09 887.388 395.914L913.722 430H906.198L880.776 396.94H880.548H854.67V430H848.742ZM854.67 391.582H881.574C894.912 391.582 904.83 384.856 904.83 373.342V373.114C904.83 362.398 896.394 355.672 881.916 355.672H854.67V391.582ZM957.117 430V398.422L922.917 350.2H930.327L960.195 393.064L990.177 350.2H997.245L963.045 398.308V430H957.117Z" fill="currentColor"/>
</svg>
